/vscmnt/brussel_pixiu_data/_data_brussel/112/vsc11236/PredSimResults/SUBJ06opt3D/expIG/worker_08.mot
version=1
nRows=6
nColumns=50
inDegrees=yes
endheader
                time	         pelvis_tilt	         pelvis_list	     pelvis_rotation	           pelvis_tx	           pelvis_ty	           pelvis_tz	       hip_flexion_r	     hip_adduction_r	      hip_rotation_r	        knee_angle_r	       ankle_angle_r	         mtp_angle_r	       hip_flexion_l	     hip_adduction_l	      hip_rotation_l	        knee_angle_l	       ankle_angle_l	         mtp_angle_l	    lumbar_extension	      lumbar_bending	     lumbar_rotation	 ercspn_r/activation	 intobl_r/activation	 extobl_r/activation	    abd_r/activation	    add_r/activation	hamstrings_r/activation	bifemsh_r/activation	glut_max_r/activation	iliopsoas_r/activation	rect_fem_r/activation	  vasti_r/activation	gastroc_r/activation	 soleus_r/activation	tib_ant_r/activation	 ercspn_l/activation	 intobl_l/activation	 extobl_l/activation	    abd_l/activation	    add_l/activation	hamstrings_l/activation	bifemsh_l/activation	glut_max_l/activation	iliopsoas_l/activation	rect_fem_l/activation	  vasti_l/activation	gastroc_l/activation	 soleus_l/activation	tib_ant_l/activation	
          1.13841277	         -6.61850586	         -1.20305713	          5.83308086	          1.47993660	          0.92398045	         -0.01070163	         33.42179656	         -1.35283327	         -8.36531672	         -6.53844868	          1.03519696	          0.24371098	        -11.53897658	         -1.03438584	         -4.37022971	         -9.62406749	          8.51062071	         33.62984161	         -6.27975447	          0.09281820	         -8.05625261	          0.20732817	          0.17246626	          0.01000003	          0.01000005	          0.25490168	          0.11531281	          0.17583463	          0.01000000	          0.14014799	          0.01000002	          0.01000000	          0.01336738	          0.01000000	          0.56107395	          0.13854106	          0.01000000	          0.01000001	          0.07369949	          0.01000007	          0.01415489	          0.25852378	          0.01684029	          0.64669288	          0.01560983	          0.01000002	          0.26343058	          0.39100760	          0.02822347	
          1.14979690	         -6.68117917	         -1.18804469	          5.89956675	          1.49743077	          0.92206830	         -0.01021495	         33.75137114	         -1.23444625	         -8.31232365	         -8.68868184	          0.74674134	          0.24239420	        -12.01869775	         -1.19221669	         -4.71672029	        -10.49387258	          7.39036495	         35.67219929	         -6.00183817	          0.43931234	         -8.54117665	          0.17426419	          0.14496186	          0.01000002	          0.00999999	          0.40740203	          0.10754394	          0.14779307	          0.08965113	          0.11779761	          0.01000004	          0.01000000	          0.01453704	          0.01415487	          0.56902483	          0.19792506	          0.01000000	          0.01000001	          0.06194612	          0.01000034	          0.01189756	          0.22614302	          0.01415466	          0.68094803	          0.01312051	          0.01000005	          0.22141950	          0.36377316	          0.02372247	
          1.16118103	         -6.71873475	         -1.21902424	          5.94149716	          1.51538527	          0.92037520	         -0.00968484	         33.85346959	         -1.15835689	         -8.06254790	        -10.78542417	          0.50049013	          0.20617068	        -12.37278533	         -1.42222636	         -5.06755000	        -11.66034077	          6.14285557	         37.73550351	         -5.69246349	          0.84205325	         -8.98231250	          0.15038350	          0.12184379	          0.01000001	          0.05759307	          0.34243081	          0.10355260	          0.12422348	          0.10861602	          0.09901160	          0.01000001	          0.01000000	          0.01221874	          0.01189750	          0.62518669	          0.18291575	          0.00999999	          0.01000001	          0.05206714	          0.01000010	          0.01000026	          0.22358665	          0.01189732	          0.67929948	          0.01102817	          0.01000001	          0.18610819	          0.33509677	          0.01993928	
          1.17256515	         -6.73454047	         -1.26382491	          5.94750700	          1.53354804	          0.91899483	         -0.00901151	         33.81700296	         -1.06989407	         -7.91395094	        -12.67951663	          0.15820418	          0.18910055	        -12.50343571	         -1.69918990	         -5.43204080	        -13.26437581	          4.74494818	         39.81251556	         -5.38554405	          1.25161714	         -9.37056120	          0.17514548	          0.10241251	          0.01000002	          0.10738047	          0.36104555	          0.09234340	          0.10441271	          0.19629478	          0.08322153	          0.01000001	          0.01000002	          0.01027015	          0.01000013	          0.67563799	          0.20204781	          0.00999999	          0.01000001	          0.04376363	          0.01000006	          0.01000014	          0.20444630	          0.01000000	          0.61167674	          0.01000014	          0.01000000	          0.15642821	          0.28591232	          0.01675943	
          1.18394928	         -6.72862268	         -1.31529408	          5.91960847	          1.55173734	          0.91800538	         -0.00820888	         33.73278713	         -0.97256202	         -7.87665040	        -14.52326479	         -0.16992544	          0.15713969	        -12.35518238	         -2.02097976	         -5.81482455	        -15.37549837	          3.17104174	         41.83440924	         -5.09964027	          1.66147547	         -9.70019629	          0.17629124	          0.08608007	          0.01000002	          0.15948838	          0.35808276	          0.08781454	          0.08776129	          0.22693581	          0.06994961	          0.01000001	          0.06567809	          0.01000003	          0.01000000	          0.71298106	          0.24137931	          0.01000000	          0.01000001	          0.03678433	          0.01000008	          0.01000017	          0.18418082	          0.01000000	          0.51412838	          0.01000008	          0.01000000	          0.13148151	          0.24031588	          0.01408668	
          1.19533341	         -6.70330406	         -1.38368034	          5.86458252	          1.56981017	          0.91752014	         -0.00729423	         33.61496252	         -0.85079966	         -7.88413887	        -16.37173304	         -0.20549453	          0.11330913	        -11.89278725	         -2.40498075	         -6.21247235	        -18.01857723	          1.40263777	         43.62532461	         -4.84188137	          2.08160847	         -9.97181227	          0.17166796	          0.07235228	          0.01000002	          0.20134611	          0.35008212	          0.08343260	          0.07376540	          0.23024152	          0.05879425	          0.01000001	          0.12880021	          0.01000002	          0.01000000	          0.71527777	          0.27553590	          0.01000000	          0.01000001	          0.03091808	          0.02379824	          0.05319087	          0.17033114	          0.01000000	          0.43213673	          0.01000003	          0.00999999	          0.11051323	          0.20199102	          0.01184018	
